<?xml version="1.0" encoding="utf-8"?>
<!-- Generator: Adobe Illustrator 16.0.0, SVG Export Plug-In . SVG Version: 6.00 Build 0)  -->
<!DOCTYPE svg PUBLIC "-//W3C//DTD SVG 1.1//EN" "http://www.w3.org/Graphics/SVG/1.1/DTD/svg11.dtd">
<svg version="1.1" id="图形" xmlns="http://www.w3.org/2000/svg" xmlns:xlink="http://www.w3.org/1999/xlink" x="0px" y="0px"
	 width="4096px" height="2048px" viewBox="0 0 4096 2048" enable-background="new 0 0 4096 2048" xml:space="preserve">
<path fill="#025F98" d="M883.911,1480.422l-295.485-307.631c-18.368-19.103-42.914-29.613-69.219-29.613
	c-26.306,0-50.851,10.52-69.22,29.613l-295.485,307.631c-30.499,31.752-26.565,59.198-21.526,70.665
	c3.602,8.137,15.729,30.49,50.658,30.49h43.315v236.659c0,53.729,38.571,104.315,93.4,104.315h125.792v-250.447
	c0-26.854-4.063-41.813,23.354-41.813h99.416c27.416,0,23.356,14.958,23.356,41.813v250.447H718.06
	c54.818,0,93.403-50.589,93.403-104.315v-236.659h43.313c34.935,0,47.071-22.354,50.659-30.49
	C910.482,1539.621,914.402,1512.174,883.911,1480.422z"/>
<path fill="#969696" stroke="#969696" stroke-width="19.5885" stroke-miterlimit="10" d="M876.408,463.093L587,161.789
	c-17.986-18.707-42.026-29.003-67.791-29.003s-49.805,10.296-67.796,29.003L162.008,463.093
	c-29.872,31.104-26.021,57.981-21.087,69.209c3.522,7.967,15.409,29.863,49.617,29.863h42.426v231.791
	c0,52.626,37.781,102.172,91.479,102.172h123.203V650.83c0-26.302-3.979-40.952,22.877-40.952h97.369
	c26.854,0,22.878,14.65,22.878,40.952v245.299h123.202c53.688,0,91.483-49.549,91.483-102.171V562.166h42.426
	c34.21,0,46.102-21.897,49.615-29.863C902.431,521.074,906.273,494.19,876.408,463.093z M847.882,514.458h-90.134v279.498
	c0,26.299-16.939,54.463-43.776,54.463H638.48V650.83c0-52.625-16.874-88.663-70.587-88.663h-97.366
	c-53.725,0-70.586,36.038-70.586,88.663v197.589h-75.497c-26.843,0-43.771-28.163-43.771-54.463V514.458H190.54
	c-0.836,0-1.605-3.285-2.308-3.332c1.653-2.888,4.504-10.201,9.229-15.12l289.434-301.091c8.646-9.017,20.854-14.535,32.688-14.417
	c11.834-0.118,23.297,5.401,31.93,14.417l289.458,301.091c4.703,4.918,7.563,12.231,9.219,15.12
	C849.488,511.173,848.721,514.458,847.882,514.458z"/>
<path fill="#969696" d="M3963.429,846.614c-0.877-158.063-100.429-293.161-240.063-346.696
	c43.531-37.679,71.116-93.31,71.116-155.268c0-113.239-92.137-205.374-205.375-205.374c-113.237,0-205.338,92.136-205.338,205.374
	c0,62.24,27.831,118.089,71.693,155.774c-139.569,54.117-238.782,189.818-238.782,348.29c0,20.654,16.727,37.377,37.377,37.377
	s37.379-16.724,37.379-37.377c0-0.743-0.028-1.478-0.072-2.213c0.646-87.657,39.229-166.456,100.113-220.75
	c27.934-23.928,61.563-42.434,61.563-42.434c41.064-21.29,87.662-33.33,137.022-33.33c49.376,0,95.985,12.045,137.06,33.336
	c0,0,35.041,19.626,61.57,42.438c61.036,54.438,99.652,133.49,100.104,221.408c-0.021,0.51-0.039,1.021-0.039,1.539
	c0,20.654,16.727,37.377,37.361,37.377c20.642,0,37.364-16.724,37.364-37.377C3963.49,848.01,3963.465,847.31,3963.429,846.614z
	 M3589.11,475.33c-72.044,0-130.669-58.65-130.669-130.681c0-72.069,58.623-130.705,130.669-130.705
	c72.07,0,130.691,58.637,130.691,130.705C3719.802,416.681,3661.177,475.33,3589.11,475.33z"/>
<path fill="#025F98" d="M3912.621,1922.554c19.811,0,35.859-16.055,35.859-35.875c0-0.674-0.021-1.345-0.061-2.016
	c-0.844-151.71-96.393-281.377-230.417-332.764c41.782-36.164,68.259-89.56,68.259-149.027c0-108.688-88.436-197.12-197.122-197.12
	c-108.688,0-197.088,88.434-197.088,197.12c0,59.74,26.712,113.344,68.813,149.516c-133.963,51.941-229.188,182.188-229.188,334.291
	c0,19.818,16.055,35.875,35.876,35.875"/>
<g>
	<circle fill="#025F98" cx="1536" cy="1532.865" r="412"/>
	<g>
		<path fill="#FFFFFF" d="M1739.388,1465.917c-8.348-9.921-20.997-15.621-34.695-15.621h-337.363
			c-13.668,0-26.315,5.688-34.665,15.608c-8.356,9.922-11.826,23.357-9.531,36.748l35.208,213.329
			c4.547,26.304,28.998,46.886,55.691,46.886h243.934c26.665,0,51.104-20.584,55.69-47.004l35.171-213.076
			C1751.181,1489.281,1747.735,1475.841,1739.388,1465.917z M1436.461,1581.808c-18.138,0-32.874-14.737-32.874-32.86
			c0-18.119,14.739-32.856,32.874-32.856c18.104,0,32.841,14.736,32.841,32.856
			C1469.302,1567.052,1454.566,1581.808,1436.461,1581.808z M1634.556,1581.808c-18.118,0-32.855-14.737-32.855-32.86
			c0-18.119,14.737-32.856,32.855-32.856c18.123,0,32.858,14.736,32.858,32.856
			C1667.416,1567.052,1652.679,1581.808,1634.556,1581.808z"/>
		<path fill="#FFFFFF" stroke="#FFFFFF" stroke-width="8.8602" stroke-miterlimit="10" d="M1421.003,1434.1
			c9.067,0,16.43-7.36,16.43-16.429c0-51.292,49.68-81.947,97.704-81.947c46.95,0,99.438,35.125,99.438,82.146
			c0,9.065,7.347,16.428,16.43,16.428c9.085,0,16.431-7.358,16.444-16.428c0-67.769-69.726-115-132.302-115
			c-64.186,0-130.572,42.94-130.572,114.799C1404.573,1426.737,1411.932,1434.1,1421.003,1434.1z"/>
	</g>
</g>
<g>
	<path fill="#919191" d="M1536,100c-227.541,0-412,184.459-412,412c0,227.542,184.459,412,412,412s412-184.459,412-412
		S1763.541,100,1536,100z M1536,850.756c-187.091,0-338.756-151.666-338.756-338.756c0-187.088,151.667-338.754,338.756-338.754
		c187.09,0,338.757,151.666,338.757,338.754C1874.757,699.091,1723.09,850.756,1536,850.756z"/>
	<g>
		<path fill="#919191" d="M1737.569,445.053c-8.269-9.922-20.807-15.623-34.385-15.623h-334.343
			c-13.546,0-26.083,5.687-34.354,15.606c-8.284,9.921-11.719,23.359-9.443,36.75l34.893,213.328
			c4.51,26.301,28.74,46.883,55.191,46.883h241.752c26.427,0,50.647-20.581,55.194-47.002l34.854-213.075
			C1749.258,468.415,1745.842,454.977,1737.569,445.053z M1437.353,560.942c-17.974,0-32.581-14.739-32.581-32.859
			c0-18.117,14.607-32.856,32.581-32.856c17.946,0,32.547,14.737,32.547,32.856C1469.9,546.187,1455.297,560.942,1437.353,560.942z
			 M1633.677,560.942c-17.957,0-32.563-14.739-32.563-32.859c0-18.117,14.605-32.856,32.563-32.856
			c17.955,0,32.561,14.737,32.561,32.856C1666.24,546.187,1651.636,560.942,1633.677,560.942z"/>
		<path fill="#919191" stroke="#919191" stroke-width="8.8602" stroke-miterlimit="10" d="M1422.031,413.231
			c8.986,0,16.285-7.359,16.285-16.427c0-51.295,49.235-81.948,96.826-81.948c46.534,0,98.553,35.125,98.553,82.143
			c0,9.069,7.277,16.431,16.279,16.431c9.006,0,16.282-7.358,16.302-16.431c0-67.765-69.102-115.001-131.119-115.001
			c-63.609,0-129.405,42.945-129.405,114.807C1405.75,405.871,1413.043,413.231,1422.031,413.231z"/>
	</g>
</g>
<g>
	<path fill="#025F98" d="M2822.032,1789.998H2391.26c-10.976,0-20.282-2.452-27.613-7.353c-7.286-4.9-13.387-11.435-18.259-19.182
		c-5.271-7.749-8.915-16.314-12.16-25.699c-2.815-9.38-5.271-17.945-6.894-26.111l-4.478-23.645l-9.31-46.932l-11.767-62.825
		l-12.993-69.758l-35.693-183.574h-61.681c-8.081,0-14.975-2.031-20.286-6.115c-5.623-4.084-10.139-8.964-13.781-14.683
		c-3.251-5.717-6.064-11.832-7.287-18.366c-1.19-6.514-2.023-12.649-2.023-17.946c0-11.019,3.645-19.979,10.976-26.932
		c7.685-6.933,17.432-10.597,29.989-10.597h83.15c10.972,0,19.888,1.63,26.383,4.898c6.496,3.27,11.768,7.331,15.848,12.229
		c3.646,4.897,6.457,10.2,8.082,15.496l4.039,13.887c1.269,4.479,2.062,10.597,3.248,18.343l3.25,24.081l4.91,30.997
		 M2761.184,1825.579c10.537,0,20.678,2.051,30.029,5.718c9.745,3.666,17.828,8.98,24.759,15.916
		c6.894,6.931,12.558,14.681,16.601,24.063c4.08,9.383,6.102,19.183,6.102,29.379c0,10.199-2.021,19.981-6.102,29.36
		c-4.039,9.384-9.707,17.132-16.601,24.085c-6.931,6.932-15.011,12.229-24.759,16.315c-9.351,4.081-19.492,6.112-30.029,6.112
		c-10.143,0-20.282-2.029-29.593-6.112c-9.309-4.086-17.47-9.383-23.966-16.315c-6.897-6.953-12.56-14.699-16.603-24.085
		c-4.081-9.379-6.099-19.161-6.099-29.36s2.018-19.997,6.099-29.379c4.039-9.381,9.704-17.133,16.603-24.063
		c6.496-6.934,14.657-12.252,23.966-15.916C2740.902,1827.629,2751.039,1825.579,2761.184,1825.579z M2431.229,1823.948
		c10.536,0,20.279,2.051,29.629,5.715c9.311,3.687,17.432,8.984,24.719,15.915c6.895,6.933,12.598,14.68,16.243,24.065
		c4.04,9.38,6.101,19.183,6.101,29.379c0,10.201-2.059,19.979-6.101,29.361c-3.646,9.382-9.351,17.153-16.243,24.085
		c-7.287,6.932-15.406,12.229-24.719,16.313c-9.35,4.082-19.095,6.113-29.629,6.113c-10.938,0-21.075-2.03-30.032-6.113
		c-8.913-4.084-17.03-9.381-24.321-16.313c-6.896-6.933-12.597-14.703-16.242-24.085c-4.039-9.382-6.101-19.161-6.101-29.361
		c0-10.199,2.059-20,6.101-29.379c3.646-9.383,9.352-17.132,16.242-24.065c7.291-6.932,15.406-12.229,24.321-15.915
		C2410.153,1825.995,2420.293,1823.948,2431.229,1823.948z"/>
	<path fill="#025F98" d="M2335.776,1346.875h575.91c0,0,79.262-6.733,54.245,82.791c-22.593,80.863-76.183,297.39-76.183,297.39
		s-15.664,66.188-69.379,62.817c-59.422-0.577-415.135,0.123-415.135,0.123L2335.776,1346.875"/>
</g>
<g>
	<path fill="#919191" d="M2912.334,279.979c15.485,0,27.237,2.058,35.81,6.127c8.495,4.093,14.611,9.005,18.262,15.132
		c3.652,6.126,5.281,12.257,4.884,19.226c-0.396,6.945-1.23,12.674-2.816,17.566l-10.604,30.262l-17.471,50.282l-19.533,54.377
		c-6.073,17.982-10.955,32.299-14.211,42.519c-7.351,21.66-16.28,36.791-27.235,45.374c-10.996,8.584-24.415,12.675-40.252,12.675
		h-444.659l12.583,73.582h415.056c26.442,0,39.858,11.036,39.858,33.536c0,11.02-2.859,20.442-8.181,28.205
		c-4.842,7.764-15.401,11.858-30.887,11.858h-431.688c-10.994,0-20.325-2.455-27.668-7.366c-7.304-4.911-13.42-11.458-18.306-19.223
		c-5.278-7.766-8.93-16.349-12.187-25.751c-2.819-9.4-5.28-17.985-6.909-26.169l-4.482-23.693l-9.33-47.031l-11.792-62.959
		l-13.021-69.908l-35.772-183.969h-61.813c-8.099,0-15.008-2.034-20.329-6.128c-5.637-4.092-10.16-8.984-13.813-14.713
		c-3.255-5.728-6.073-11.858-7.305-18.405c-1.188-6.527-2.024-12.674-2.024-17.985c0-11.038,3.655-20.021,10.998-26.988
		c7.703-6.948,17.471-10.62,30.053-10.62h83.326c10.997,0,19.935,1.637,26.44,4.91c6.512,3.275,11.793,7.345,15.885,12.256
		c3.649,4.91,6.468,10.221,8.1,15.53l4.046,13.915c1.271,4.491,2.065,10.62,3.259,18.384l3.26,24.132l4.924,31.061h575.551
		L2912.334,279.979L2912.334,279.979z M2761.969,754.765c10.562,0,20.726,2.055,30.098,5.728
		c9.765,3.673,17.863,9.002,24.814,15.951c6.903,6.945,12.58,14.712,16.634,24.11c4.088,9.405,6.112,19.227,6.112,29.445
		s-2.024,20.021-6.112,29.426c-4.054,9.4-9.729,17.169-16.634,24.132c-6.949,6.948-15.049,12.259-24.814,16.351
		c-9.372,4.091-19.537,6.127-30.098,6.127c-10.161,0-20.322-2.036-29.652-6.127c-9.331-4.092-17.509-9.4-24.02-16.351
		c-6.907-6.966-12.588-14.73-16.636-24.132c-4.092-9.402-6.114-19.205-6.114-29.426s2.022-20.042,6.114-29.445
		c4.048-9.396,9.729-17.165,16.636-24.11c6.511-6.948,14.688-12.278,24.02-15.951
		C2741.645,756.821,2751.809,754.765,2761.969,754.765z M2431.282,753.129c10.56,0,20.326,2.054,29.697,5.728
		c9.33,3.69,17.467,9.001,24.772,15.947c6.908,6.946,12.621,14.712,16.276,24.114c4.052,9.402,6.114,19.224,6.114,29.445
		c0,10.219-2.063,20.021-6.114,29.424c-3.653,9.402-9.368,17.186-16.276,24.133c-7.305,6.948-15.442,12.256-24.772,16.347
		c-9.366,4.095-19.139,6.13-29.697,6.13c-10.958,0-21.12-2.034-30.094-6.13c-8.933-4.09-17.07-9.397-24.377-16.347
		c-6.906-6.948-12.624-14.729-16.276-24.133c-4.047-9.401-6.111-19.205-6.111-29.424c0-10.223,2.062-20.044,6.111-29.445
		c3.653-9.401,9.371-17.167,16.276-24.114c7.305-6.946,15.442-12.257,24.377-15.947
		C2410.16,755.185,2420.324,753.129,2431.282,753.129z"/>
</g>
</svg>
